{
  "accessors": [
    {
      "bufferView": 2,
      "componentType": 5126,
      "count": 2325,
      "max": [
        2.056910991668701,
        13.532197952270508,
        15.3142671585083
      ],
      "min": [
        -2.2285165786743164,
        -6.087989807128906,
        -16.637290954589844
      ],
      "type": "VEC3"
    },
    {
      "bufferView": 2,
      "byteOffset": 27900,
      "componentType": 5126,
      "count": 2325,
      "max": [
        1.0,
        1.0,
        1.0
      ],
      "min": [
        -1.0,
        -1.0,
        -1.0
      ],
      "type": "VEC3"
    },
    {
      "bufferView": 1,
      "componentType": 5126,
      "count": 2325,
      "max": [
        0.9989989995956421,
        1.0
      ],
      "min": [
        0.0010010009864345193,
        -0.017172355204820633
      ],
      "type": "VEC2"
    },
    {
      "bufferView": 0,
      "componentType": 5125,
      "count": 6318,
      "type": "SCALAR"
    },
    {
      "bufferView": 2,
      "byteOffset": 55800,
      "componentType": 5126,
      "count": 4,
      "max": [
        1.9306645393371582,
        13.245351791381836,
        15.027421951293945
      ],
      "min": [
        1.9306645393371582,
        -2.2626266479492188,
        -16.350446701049805
      ],
      "type": "VEC3"
    },
    {
      "bufferView": 2,
      "byteOffset": 55848,
      "componentType": 5126,
      "count": 4,
      "max": [
        1.0,
        0.0,
        -0.0
      ],
      "min": [
        1.0,
        0.0,
        -0.0
      ],
      "type": "VEC3"
    },
    {
      "bufferView": 1,
      "byteOffset": 18600,
      "componentType": 5126,
      "count": 4,
      "max": [
        0.6264500021934509,
        0.9989989995956421
      ],
      "min": [
        0.0010010009864345193,
        0.6676676869392395
      ],
      "type": "VEC2"
    },
    {
      "bufferView": 0,
      "byteOffset": 25272,
      "componentType": 5125,
      "count": 6,
      "type": "SCALAR"
    },
    {
      "bufferView": 2,
      "byteOffset": 55896,
      "componentType": 5126,
      "count": 24,
      "max": [
        2.038440227508545,
        -2.5546436309814453,
        -13.605731964111328
      ],
      "min": [
        2.038440227508545,
        -2.912342071533203,
        -16.286333084106445
      ],
      "type": "VEC3"
    },
    {
      "bufferView": 2,
      "byteOffset": 56184,
      "componentType": 5126,
      "count": 24,
      "max": [
        1.0,
        0.0,
        -1.3162459566729012e-08
      ],
      "min": [
        1.0,
        0.0,
        -1.3162459566729012e-08
      ],
      "type": "VEC3"
    },
    {
      "bufferView": 1,
      "byteOffset": 18632,
      "componentType": 5126,
      "count": 24,
      "max": [
        0.9974824786186218,
        1.0146843194961548
      ],
      "min": [
        0.002441704273223877,
        -0.014684975147247314
      ],
      "type": "VEC2"
    },
    {
      "bufferView": 0,
      "byteOffset": 25296,
      "componentType": 5125,
      "count": 66,
      "type": "SCALAR"
    },
    {
      "bufferView": 2,
      "byteOffset": 56472,
      "componentType": 5126,
      "count": 600,
      "max": [
        2.058149814605713,
        -2.3303720951080322,
        -14.904003143310547
      ],
      "min": [
        2.058149814605713,
        -2.4910972118377686,
        -15.216958045959473
      ],
      "type": "VEC3"
    },
    {
      "bufferView": 2,
      "byteOffset": 63672,
      "componentType": 5126,
      "count": 600,
      "max": [
        1.0,
        0.0,
        0.00013935340393800288
      ],
      "min": [
        1.0,
        0.0,
        -7.144005212467164e-05
      ],
      "type": "VEC3"
    },
    {
      "bufferView": 1,
      "byteOffset": 18824,
      "componentType": 5126,
      "count": 600,
      "max": [
        0.43037155270576477,
        0.2073323279619217
      ],
      "min": [
        0.3539421856403351,
        0.1260010004043579
      ],
      "type": "VEC2"
    },
    {
      "bufferView": 0,
      "byteOffset": 25560,
      "componentType": 5125,
      "count": 600,
      "type": "SCALAR"
    },
    {
      "bufferView": 2,
      "byteOffset": 70872,
      "componentType": 5126,
      "count": 886,
      "max": [
        -0.002860467880964279,
        2.060321092605591,
        1.0653893947601318
      ],
      "min": [
        -0.519388735294342,
        -0.0002815723419189453,
        -1.0575686693191528
      ],
      "type": "VEC3"
    },
    {
      "bufferView": 2,
      "byteOffset": 81504,
      "componentType": 5126,
      "count": 886,
      "max": [
        1.0,
        1.0,
        1.0
      ],
      "min": [
        -1.0,
        -1.0,
        -1.0
      ],
      "type": "VEC3"
    },
    {
      "bufferView": 3,
      "componentType": 5126,
      "count": 886,
      "max": [
        1.0,
        1.0,
        1.0,
        1.0
      ],
      "min": [
        -1.0,
        -1.0,
        -1.0,
        -1.0
      ],
      "type": "VEC4"
    },
    {
      "bufferView": 1,
      "byteOffset": 23624,
      "componentType": 5126,
      "count": 886,
      "max": [
        0.9999998807907104,
        0.9990246295928955
      ],
      "min": [
        0.0,
        0.0
      ],
      "type": "VEC2"
    },
    {
      "bufferView": 0,
      "byteOffset": 27960,
      "componentType": 5125,
      "count": 2562,
      "type": "SCALAR"
    },
    {
      "bufferView": 2,
      "byteOffset": 92136,
      "componentType": 5126,
      "count": 12,
      "max": [
        -0.022116247564554214,
        1.8613429069519043,
        0.5027253031730652
      ],
      "min": [
        -0.47795161604881287,
        0.5420290231704712,
        -1.0144084692001343
      ],
      "type": "VEC3"
    },
    {
      "bufferView": 2,
      "byteOffset": 92280,
      "componentType": 5126,
      "count": 12,
      "max": [
        1.0,
        0.0,
        1.0
      ],
      "min": [
        0.0,
        0.0,
        -1.0
      ],
      "type": "VEC3"
    },
    {
      "bufferView": 1,
      "byteOffset": 30712,
      "componentType": 5126,
      "count": 12,
      "max": [
        0.9973830580711365,
        0.5853607654571533
      ],
      "min": [
        0.0019471943378448486,
        0.002616971731185913
      ],
      "type": "VEC2"
    },
    {
      "bufferView": 0,
      "byteOffset": 38208,
      "componentType": 5125,
      "count": 18,
      "type": "SCALAR"
    },
    {
      "bufferView": 2,
      "byteOffset": 92424,
      "componentType": 5126,
      "count": 212,
      "max": [
        -0.022585473954677582,
        0.048844337463378906,
        0.5102119445800781
      ],
      "min": [
        -0.04540300741791725,
        0.04599493741989136,
        -1.0198971033096313
      ],
      "type": "VEC3"
    },
    {
      "bufferView": 2,
      "byteOffset": 94968,
      "componentType": 5126,
      "count": 212,
      "max": [
        1.0,
        1.0,
        1.0
      ],
      "min": [
        -1.0,
        -1.0,
        -1.0
      ],
      "type": "VEC3"
    },
    {
      "bufferView": 3,
      "byteOffset": 14176,
      "componentType": 5126,
      "count": 212,
      "max": [
        1.0,
        1.0,
        0.9999925494194031,
        1.0
      ],
      "min": [
        -1.0,
        -1.0,
        -0.8905109763145447,
        -1.0
      ],
      "type": "VEC4"
    },
    {
      "bufferView": 1,
      "byteOffset": 30808,
      "componentType": 5126,
      "count": 212,
      "max": [
        0.07404022663831711,
        0.9967929720878601
      ],
      "min": [
        0.003207119181752205,
        -0.0006704031839035451
      ],
      "type": "VEC2"
    },
    {
      "bufferView": 0,
      "byteOffset": 38280,
      "componentType": 5125,
      "count": 456,
      "type": "SCALAR"
    },
    {
      "bufferView": 2,
      "byteOffset": 97512,
      "componentType": 5126,
      "count": 206,
      "max": [
        0.0050106532871723175,
        0.3648468852043152,
        0.0004786252975463867
      ],
      "min": [
        -0.009863322600722313,
        -0.4574027359485626,
        -1.4707849025726318
      ],
      "type": "VEC3"
    },
    {
      "bufferView": 2,
      "byteOffset": 99984,
      "componentType": 5126,
      "count": 206,
      "max": [
        1.0,
        1.0,
        1.0
      ],
      "min": [
        -1.0,
        -1.0,
        -1.0
      ],
      "type": "VEC3"
    },
    {
      "bufferView": 1,
      "byteOffset": 32504,
      "componentType": 5126,
      "count": 206,
      "max": [
        0.948415219783783,
        0.9956128597259521
      ],
      "min": [
        0.00438690185546875,
        0.00438690185546875
      ],
      "type": "VEC2"
    },
    {
      "bufferView": 0,
      "byteOffset": 40104,
      "componentType": 5125,
      "count": 324,
      "type": "SCALAR"
    },
    {
      "bufferView": 2,
      "byteOffset": 102456,
      "componentType": 5126,
      "count": 158,
      "max": [
        0.03671981766819954,
        0.05049845576286316,
        -1.2733514308929443
      ],
      "min": [
        0.004503332078456879,
        -0.05853527784347534,
        -1.3205368518829346
      ],
      "type": "VEC3"
    },
    {
      "bufferView": 2,
      "byteOffset": 104352,
      "componentType": 5126,
      "count": 158,
      "max": [
        1.0,
        1.0,
        1.0
      ],
      "min": [
        -1.0,
        -1.0,
        -1.0
      ],
      "type": "VEC3"
    },
    {
      "bufferView": 3,
      "byteOffset": 17568,
      "componentType": 5126,
      "count": 158,
      "max": [
        1.0,
        1.7204657751790364e-06,
        1.0,
        -1.0
      ],
      "min": [
        -1.0,
        -3.118290578640881e-06,
        -1.0,
        -1.0
      ],
      "type": "VEC4"
    },
    {
      "bufferView": 1,
      "byteOffset": 34152,
      "componentType": 5126,
      "count": 158,
      "max": [
        0.9641110301017761,
        0.9826939105987549
      ],
      "min": [
        0.017306208610534668,
        0.01730632781982422
      ],
      "type": "VEC2"
    },
    {
      "bufferView": 0,
      "byteOffset": 41400,
      "componentType": 5125,
      "count": 402,
      "type": "SCALAR"
    },
    {
      "bufferView": 2,
      "byteOffset": 106248,
      "componentType": 5126,
      "count": 212,
      "max": [
        -0.0154282096773386,
        0.3533547520637512,
        1.4699604511260986
      ],
      "min": [
        -0.03030218556523323,
        -0.4688948690891266,
        -0.0013030767440795898
      ],
      "type": "VEC3"
    },
    {
      "bufferView": 2,
      "byteOffset": 108792,
      "componentType": 5126,
      "count": 212,
      "max": [
        1.0,
        1.0,
        1.0
      ],
      "min": [
        -1.0,
        -1.0,
        -1.0
      ],
      "type": "VEC3"
    },
    {
      "bufferView": 1,
      "byteOffset": 35416,
      "componentType": 5126,
      "count": 212,
      "max": [
        0.9484153985977173,
        0.9956130981445313
      ],
      "min": [
        0.00438690185546875,
        0.00438690185546875
      ],
      "type": "VEC2"
    },
    {
      "bufferView": 0,
      "byteOffset": 43008,
      "componentType": 5125,
      "count": 324,
      "type": "SCALAR"
    },
    {
      "bufferView": 2,
      "byteOffset": 111336,
      "componentType": 5126,
      "count": 160,
      "max": [
        0.03993846848607063,
        0.03880397230386734,
        1.330496907234192
      ],
      "min": [
        0.007721982896327972,
        -0.07022977620363235,
        1.283311367034912
      ],
      "type": "VEC3"
    },
    {
      "bufferView": 2,
      "byteOffset": 113256,
      "componentType": 5126,
      "count": 160,
      "max": [
        1.0,
        1.0,
        1.0
      ],
      "min": [
        -1.0,
        -1.0,
        -1.0
      ],
      "type": "VEC3"
    },
    {
      "bufferView": 3,
      "byteOffset": 20096,
      "componentType": 5126,
      "count": 160,
      "max": [
        1.0,
        4.5219582034405903e-07,
        1.0,
        -1.0
      ],
      "min": [
        -1.0,
        -1.7205131825903663e-06,
        -1.0,
        -1.0
      ],
      "type": "VEC4"
    },
    {
      "bufferView": 1,
      "byteOffset": 37112,
      "componentType": 5126,
      "count": 160,
      "max": [
        0.9641110301017761,
        0.9826939105987549
      ],
      "min": [
        0.017306208610534668,
        0.01730632781982422
      ],
      "type": "VEC2"
    },
    {
      "bufferView": 0,
      "byteOffset": 44304,
      "componentType": 5125,
      "count": 408,
      "type": "SCALAR"
    }
  ],
  "asset": {
    "extras": {
      "author": "Aditya.Putra.Dwitama (https://sketchfab.com/Aditya.Putra.Dwitama)",
      "license": "CC-BY-NC-SA-4.0 (http://creativecommons.org/licenses/by-nc-sa/4.0/)",
      "source": "https://sketchfab.com/3d-models/tv-cupboard-3ba89b1be39644fea0575bf5911b0d96",
      "title": "TV Cupboard"
    },
    "generator": "Sketchfab-11.77.0",
    "version": "2.0"
  },
  "bufferViews": [
    {
      "buffer": 0,
      "byteLength": 45936,
      "name": "floatBufferViews",
      "target": 34963
    },
    {
      "buffer": 0,
      "byteLength": 38392,
      "byteOffset": 45936,
      "byteStride": 8,
      "name": "floatBufferViews",
      "target": 34962
    },
    {
      "buffer": 0,
      "byteLength": 115176,
      "byteOffset": 84328,
      "byteStride": 12,
      "name": "floatBufferViews",
      "target": 34962
    },
    {
      "buffer": 0,
      "byteLength": 22656,
      "byteOffset": 199504,
      "byteStride": 16,
      "name": "floatBufferViews",
      "target": 34962
    }
  ],
  "buffers": [
    {
      "byteLength": 222160,
      "uri": "scene.bin"
    }
  ],
  "images": [
    {
      "uri": "textures/SecondScreen_baseColor.png"
    },
    {
      "uri": "textures/Varnished_Madrone_Burl_tcnqaeoc_baseColor.jpeg"
    },
    {
      "uri": "textures/Varnished_Madrone_Burl_tcnqaeoc_normal.png"
    },
    {
      "uri": "textures/Japanese_House_Wooden_tlolfjhew_baseColor.jpeg"
    },
    {
      "uri": "textures/Japanese_House_Wooden_tlolfjhew_metallicRoughness.png"
    },
    {
      "uri": "textures/Brushed_Steel_shkafchc_baseColor.jpeg"
    },
    {
      "uri": "textures/Brushed_Steel_shkafchc_normal.png"
    }
  ],
  "materials": [
    {
      "doubleSided": true,
      "name": "Body",
      "pbrMetallicRoughness": {
        "baseColorFactor": [
          0.00807594,
          0.00807594,
          0.00807594,
          1.0
        ],
        "metallicFactor": 0.0,
        "roughnessFactor": 0.9983734248
      }
    },
    {
      "doubleSided": true,
      "name": "Screen",
      "pbrMetallicRoughness": {
        "baseColorFactor": [
          0.00637027,
          0.00637027,
          0.00637027,
          1.0
        ],
        "metallicFactor": 0.0,
        "roughnessFactor": 0.9981645339
      }
    },
    {
      "doubleSided": true,
      "name": "SecondScreen",
      "pbrMetallicRoughness": {
        "baseColorTexture": {
          "index": 0
        },
        "metallicFactor": 0.0,
        "roughnessFactor": 0.7900584202000001
      }
    },
    {
      "doubleSided": true,
      "name": "Material.031",
      "pbrMetallicRoughness": {
        "baseColorFactor": [
          0.8,
          0.794658,
          0.715723,
          1.0
        ],
        "metallicFactor": 0.0,
        "roughnessFactor": 0.8861750593
      }
    },
    {
      "doubleSided": true,
      "name": "Varnished_Madrone_Burl_tcnqaeoc",
      "normalTexture": {
        "index": 2
      },
      "pbrMetallicRoughness": {
        "baseColorTexture": {
          "index": 1
        },
        "metallicFactor": 0.0,
        "roughnessFactor": 0.8211145618
      }
    },
    {
      "doubleSided": true,
      "name": "Japanese_House_Wooden_tlolfjhew",
      "pbrMetallicRoughness": {
        "baseColorTexture": {
          "index": 3
        },
        "metallicRoughnessTexture": {
          "index": 4
        }
      }
    },
    {
      "doubleSided": true,
      "name": "Brushed_Steel_shkafchc",
      "normalTexture": {
        "index": 6
      },
      "pbrMetallicRoughness": {
        "baseColorTexture": {
          "index": 5
        },
        "metallicFactor": 0.0,
        "roughnessFactor": 0.8211145618
      }
    }
  ],
  "meshes": [
    {
      "name": "Object_0",
      "primitives": [
        {
          "attributes": {
            "NORMAL": 1,
            "POSITION": 0,
            "TEXCOORD_0": 2
          },
          "indices": 3,
          "material": 0,
          "mode": 4
        }
      ]
    },
    {
      "name": "Object_1",
      "primitives": [
        {
          "attributes": {
            "NORMAL": 5,
            "POSITION": 4,
            "TEXCOORD_0": 6
          },
          "indices": 7,
          "material": 1,
          "mode": 4
        }
      ]
    },
    {
      "name": "Object_2",
      "primitives": [
        {
          "attributes": {
            "NORMAL": 9,
            "POSITION": 8,
            "TEXCOORD_0": 10
          },
          "indices": 11,
          "material": 2,
          "mode": 4
        }
      ]
    },
    {
      "name": "Object_3",
      "primitives": [
        {
          "attributes": {
            "NORMAL": 13,
            "POSITION": 12,
            "TEXCOORD_0": 14
          },
          "indices": 15,
          "material": 3,
          "mode": 4
        }
      ]
    },
    {
      "name": "Object_4",
      "primitives": [
        {
          "attributes": {
            "NORMAL": 17,
            "POSITION": 16,
            "TANGENT": 18,
            "TEXCOORD_0": 19
          },
          "indices": 20,
          "material": 4,
          "mode": 4
        }
      ]
    },
    {
      "name": "Object_5",
      "primitives": [
        {
          "attributes": {
            "NORMAL": 22,
            "POSITION": 21,
            "TEXCOORD_0": 23
          },
          "indices": 24,
          "material": 5,
          "mode": 4
        }
      ]
    },
    {
      "name": "Object_6",
      "primitives": [
        {
          "attributes": {
            "NORMAL": 26,
            "POSITION": 25,
            "TANGENT": 27,
            "TEXCOORD_0": 28
          },
          "indices": 29,
          "material": 6,
          "mode": 4
        }
      ]
    },
    {
      "name": "Object_7",
      "primitives": [
        {
          "attributes": {
            "NORMAL": 31,
            "POSITION": 30,
            "TEXCOORD_0": 32
          },
          "indices": 33,
          "material": 5,
          "mode": 4
        }
      ]
    },
    {
      "name": "Object_8",
      "primitives": [
        {
          "attributes": {
            "NORMAL": 35,
            "POSITION": 34,
            "TANGENT": 36,
            "TEXCOORD_0": 37
          },
          "indices": 38,
          "material": 6,
          "mode": 4
        }
      ]
    },
    {
      "name": "Object_9",
      "primitives": [
        {
          "attributes": {
            "NORMAL": 40,
            "POSITION": 39,
            "TEXCOORD_0": 41
          },
          "indices": 42,
          "material": 5,
          "mode": 4
        }
      ]
    },
    {
      "name": "Object_10",
      "primitives": [
        {
          "attributes": {
            "NORMAL": 44,
            "POSITION": 43,
            "TANGENT": 45,
            "TEXCOORD_0": 46
          },
          "indices": 47,
          "material": 6,
          "mode": 4
        }
      ]
    }
  ],
  "nodes": [
    {
      "children": [
        1
      ],
      "matrix": [
        1.0,
        0.0,
        0.0,
        0.0,
        0.0,
        2.220446049250313e-16,
        -1.0,
        0.0,
        0.0,
        1.0,
        2.220446049250313e-16,
        0.0,
        0.0,
        0.0,
        0.0,
        1.0
      ],
      "name": "Sketchfab_model"
    },
    {
      "children": [
        2
      ],
      "name": "root"
    },
    {
      "children": [
        3,
        8,
        12,
        15
      ],
      "matrix": [
        1.0,
        0.0,
        0.0,
        0.0,
        0.0,
        2.220446049250313e-16,
        1.0,
        0.0,
        0.0,
        -1.0,
        2.220446049250313e-16,
        0.0,
        0.0,
        0.0,
        0.0,
        1.0
      ],
      "name": "GLTF_SceneRootNode"
    },
    {
      "children": [
        4,
        5,
        6,
        7
      ],
      "matrix": [
        0.06660331785678864,
        0.0,
        0.0,
        0.0,
        0.0,
        0.06660331785678864,
        0.0,
        0.0,
        0.0,
        0.0,
        0.06660331785678864,
        0.0,
        -0.2704121768474579,
        1.440679907798767,
        -0.4967553913593292,
        1.0
      ],
      "name": "TV_2"
    },
    {
      "mesh": 0,
      "name": "Object_4"
    },
    {
      "mesh": 1,
      "name": "Object_5"
    },
    {
      "mesh": 2,
      "name": "Object_6"
    },
    {
      "mesh": 3,
      "name": "Object_7"
    },
    {
      "children": [
        9,
        10,
        11
      ],
      "matrix": [
        1.9117498397827148,
        0.0,
        0.0,
        0.0,
        0.0,
        1.9117498397827148,
        0.0,
        0.0,
        0.0,
        0.0,
        1.9117498397827148,
        0.0,
        0.0,
        0.0,
        0.0,
        1.0
      ],
      "name": "CupBoard_3"
    },
    {
      "mesh": 4,
      "name": "Object_9"
    },
    {
      "mesh": 5,
      "name": "Object_10"
    },
    {
      "mesh": 6,
      "name": "Object_11"
    },
    {
      "children": [
        13,
        14
      ],
      "matrix": [
        1.0,
        0.0,
        0.0,
        0.0,
        0.0,
        1.0,
        0.0,
        0.0,
        0.0,
        0.0,
        1.0,
        0.0,
        -0.047939151525497437,
        0.5460940599441528,
        -0.4613807797431946,
        1.0
      ],
      "name": "RightDoor_4"
    },
    {
      "mesh": 7,
      "name": "Object_13"
    },
    {
      "mesh": 8,
      "name": "Object_14"
    },
    {
      "children": [
        16,
        17
      ],
      "matrix": [
        1.0,
        0.0,
        0.0,
        0.0,
        0.0,
        1.0,
        0.0,
        0.0,
        0.0,
        0.0,
        1.0,
        0.0,
        -0.05115780234336853,
        0.5575861930847168,
        -0.508991003036499,
        1.0
      ],
      "name": "LeftDoor_5"
    },
    {
      "mesh": 9,
      "name": "Object_16"
    },
    {
      "mesh": 10,
      "name": "Object_17"
    }
  ],
  "samplers": [
    {
      "magFilter": 9729,
      "minFilter": 9987,
      "wrapS": 10497,
      "wrapT": 10497
    }
  ],
  "scene": 0,
  "scenes": [
    {
      "name": "Sketchfab_Scene",
      "nodes": [
        0
      ]
    }
  ],
  "textures": [
    {
      "sampler": 0,
      "source": 0
    },
    {
      "sampler": 0,
      "source": 1
    },
    {
      "sampler": 0,
      "source": 2
    },
    {
      "sampler": 0,
      "source": 3
    },
    {
      "sampler": 0,
      "source": 4
    },
    {
      "sampler": 0,
      "source": 5
    },
    {
      "sampler": 0,
      "source": 6
    }
  ]
}
