{
  "accessors": [
    {
      "bufferView": 2,
      "componentType": 5126,
      "count": 473,
      "max": [
        0.025443525984883308,
        0.025443525984883308,
        0.06921917200088501
      ],
      "min": [
        -0.025443525984883308,
        -0.025443525984883308,
        -0.060803800821304321
      ],
      "type": "VEC3"
    },
    {
      "bufferView": 2,
      "byteOffset": 5676,
      "componentType": 5126,
      "count": 473,
      "max": [
        1,
        1,
        1
      ],
      "min": [
        -1,
        -1,
        -1
      ],
      "type": "VEC3"
    },
    {
      "bufferView": 3,
      "componentType": 5126,
      "count": 473,
      "max": [
        0.96780562400817871,
        0.96755170822143555,
        1,
        1
      ],
      "min": [
        -0.89447319507598877,
        -0.78991830348968506,
        -0.98382347822189331,
        1
      ],
      "type": "VEC4"
    },
    {
      "bufferView": 1,
      "componentType": 5126,
      "count": 473,
      "max": [
        0.99572867155075073,
        0.91918975114822388
      ],
      "min": [
        0.0040945848450064659,
        0.039250832051038742
      ],
      "type": "VEC2"
    },
    {
      "bufferView": 0,
      "componentType": 5125,
      "count": 2400,
      "max": [
        472
      ],
      "min": [
        0
      ],
      "type": "SCALAR"
    },
    {
      "bufferView": 2,
      "byteOffset": 11352,
      "componentType": 5126,
      "count": 758,
      "max": [
        0.36026367545127869,
        0.087213672697544098,
        0.18666459619998932
      ],
      "min": [
        -0.36026367545127869,
        -0.069551914930343628,
        -0.18333578109741211
      ],
      "type": "VEC3"
    },
    {
      "bufferView": 2,
      "byteOffset": 20448,
      "componentType": 5126,
      "count": 758,
      "max": [
        1,
        1,
        1
      ],
      "min": [
        -1,
        -1,
        -1
      ],
      "type": "VEC3"
    },
    {
      "bufferView": 3,
      "byteOffset": 7568,
      "componentType": 5126,
      "count": 758,
      "max": [
        1,
        1,
        1,
        1
      ],
      "min": [
        -1,
        -1,
        -1,
        -1
      ],
      "type": "VEC4"
    },
    {
      "bufferView": 1,
      "byteOffset": 3784,
      "componentType": 5126,
      "count": 758,
      "max": [
        0.99742048978805542,
        0.94397205114364624
      ],
      "min": [
        0.0028094586450606585,
        0.00037333424552343786
      ],
      "type": "VEC2"
    },
    {
      "bufferView": 0,
      "byteOffset": 9600,
      "componentType": 5125,
      "count": 2880,
      "max": [
        757
      ],
      "min": [
        0
      ],
      "type": "SCALAR"
    },
    {
      "bufferView": 2,
      "byteOffset": 29544,
      "componentType": 5126,
      "count": 16,
      "max": [
        0.35763967037200928,
        -0.025300046429038048,
        0.18390791118144989
      ],
      "min": [
        -0.35763967037200928,
        -0.025300046429038048,
        -0.1111903041601181
      ],
      "type": "VEC3"
    },
    {
      "bufferView": 2,
      "byteOffset": 29736,
      "componentType": 5126,
      "count": 16,
      "max": [
        0.57735025882720947,
        -0.57714605331420898,
        0.70622122287750244
      ],
      "min": [
        -0.57735025882720947,
        -1,
        -0.70710676908493042
      ],
      "type": "VEC3"
    },
    {
      "bufferView": 3,
      "byteOffset": 19696,
      "componentType": 5126,
      "count": 16,
      "max": [
        1,
        0.79903805255889893,
        0.40837681293487549,
        1
      ],
      "min": [
        0.54496204853057861,
        -0.79903733730316162,
        -0.40825092792510986,
        1
      ],
      "type": "VEC4"
    },
    {
      "bufferView": 1,
      "byteOffset": 9848,
      "componentType": 5126,
      "count": 16,
      "max": [
        0.99633610248565674,
        0.92052912712097168
      ],
      "min": [
        0.0040718140080571175,
        0.098414883017539978
      ],
      "type": "VEC2"
    },
    {
      "bufferView": 0,
      "byteOffset": 21120,
      "componentType": 5125,
      "count": 48,
      "max": [
        15
      ],
      "min": [
        0
      ],
      "type": "SCALAR"
    },
    {
      "bufferView": 2,
      "byteOffset": 29928,
      "componentType": 5126,
      "count": 4068,
      "max": [
        0.24090820550918579,
        0.093095660209655762,
        0.011460759676992893
      ],
      "min": [
        -0.24090820550918579,
        -0.097515814006328583,
        -0.0078898333013057709
      ],
      "type": "VEC3"
    },
    {
      "bufferView": 2,
      "byteOffset": 78744,
      "componentType": 5126,
      "count": 4068,
      "max": [
        1,
        1,
        1
      ],
      "min": [
        -1,
        -1,
        -1
      ],
      "type": "VEC3"
    },
    {
      "bufferView": 3,
      "byteOffset": 19952,
      "componentType": 5126,
      "count": 4068,
      "max": [
        1,
        1,
        1,
        1
      ],
      "min": [
        -1,
        -0.65213298797607422,
        -1,
        1
      ],
      "type": "VEC4"
    },
    {
      "bufferView": 1,
      "byteOffset": 9976,
      "componentType": 5126,
      "count": 4068,
      "max": [
        0.99600207805633545,
        0.99573111534118652
      ],
      "min": [
        0.0069924518465995789,
        0.0062159597873687744
      ],
      "type": "VEC2"
    },
    {
      "bufferView": 0,
      "byteOffset": 21312,
      "componentType": 5125,
      "count": 9960,
      "max": [
        4067
      ],
      "min": [
        0
      ],
      "type": "SCALAR"
    },
    {
      "bufferView": 2,
      "byteOffset": 127560,
      "componentType": 5126,
      "count": 3695,
      "max": [
        0.96715730428695679,
        0.98094218969345093,
        0.25353097915649414
      ],
      "min": [
        -1.0909489393234253,
        -1.0465365648269653,
        -0.35049936175346375
      ],
      "type": "VEC3"
    },
    {
      "bufferView": 2,
      "byteOffset": 171900,
      "componentType": 5126,
      "count": 3695,
      "max": [
        1,
        1,
        1
      ],
      "min": [
        -1,
        -1,
        -1
      ],
      "type": "VEC3"
    },
    {
      "bufferView": 3,
      "byteOffset": 85040,
      "componentType": 5126,
      "count": 3695,
      "max": [
        1,
        1,
        1,
        1
      ],
      "min": [
        -1,
        -1,
        -1,
        1
      ],
      "type": "VEC4"
    },
    {
      "bufferView": 1,
      "byteOffset": 42520,
      "componentType": 5126,
      "count": 3695,
      "max": [
        0.99844831228256226,
        0.99501669406890869
      ],
      "min": [
        0.001551732188090682,
        0.001551732188090682
      ],
      "type": "VEC2"
    },
    {
      "bufferView": 0,
      "byteOffset": 61152,
      "componentType": 5125,
      "count": 11958,
      "max": [
        3694
      ],
      "min": [
        0
      ],
      "type": "SCALAR"
    },
    {
      "bufferView": 2,
      "byteOffset": 216240,
      "componentType": 5126,
      "count": 192,
      "max": [
        1.0004792213439941,
        1.0164520740509033,
        0.29814916849136353
      ],
      "min": [
        -1.1414414644241333,
        -1.1127275228500366,
        0.25353097915649414
      ],
      "type": "VEC3"
    },
    {
      "bufferView": 2,
      "byteOffset": 218544,
      "componentType": 5126,
      "count": 192,
      "max": [
        1,
        1,
        1
      ],
      "min": [
        -0.99518686532974243,
        -0.99518686532974243,
        -1
      ],
      "type": "VEC3"
    },
    {
      "bufferView": 3,
      "byteOffset": 144160,
      "componentType": 5126,
      "count": 192,
      "max": [
        0.94842129945755005,
        0.99999982118606567,
        0.49708476662635803,
        1
      ],
      "min": [
        -1,
        -1,
        -0.51437503099441528,
        1
      ],
      "type": "VEC4"
    },
    {
      "bufferView": 1,
      "byteOffset": 72080,
      "componentType": 5126,
      "count": 192,
      "max": [
        0.99237185716629028,
        0.85667973756790161
      ],
      "min": [
        0.012744017876684666,
        0.037472259253263474
      ],
      "type": "VEC2"
    },
    {
      "bufferView": 0,
      "byteOffset": 108984,
      "componentType": 5125,
      "count": 540,
      "max": [
        191
      ],
      "min": [
        0
      ],
      "type": "SCALAR"
    },
    {
      "bufferView": 2,
      "byteOffset": 220848,
      "componentType": 5126,
      "count": 779,
      "max": [
        0.2830982506275177,
        0.16394050419330597,
        0.20125530660152435
      ],
      "min": [
        -0.2830982506275177,
        -0.058417432010173798,
        -0.1187635213136673
      ],
      "type": "VEC3"
    },
    {
      "bufferView": 2,
      "byteOffset": 230196,
      "componentType": 5126,
      "count": 779,
      "max": [
        0.92704826593399048,
        0.99783700704574585,
        0.99783700704574585
      ],
      "min": [
        -0.92704826593399048,
        -0.99783700704574585,
        -0.99783700704574585
      ],
      "type": "VEC3"
    },
    {
      "bufferView": 3,
      "byteOffset": 147232,
      "componentType": 5126,
      "count": 779,
      "max": [
        1,
        0.97548872232437134,
        0.99867081642150879,
        1
      ],
      "min": [
        -1,
        -0.9838753342628479,
        -0.99329465627670288,
        1
      ],
      "type": "VEC4"
    },
    {
      "bufferView": 1,
      "byteOffset": 73616,
      "componentType": 5126,
      "count": 779,
      "max": [
        0.99443256855010986,
        0.96191751956939697
      ],
      "min": [
        0.0031311486382037401,
        0.0045297592878341675
      ],
      "type": "VEC2"
    },
    {
      "bufferView": 0,
      "byteOffset": 111144,
      "componentType": 5125,
      "count": 2676,
      "max": [
        778
      ],
      "min": [
        0
      ],
      "type": "SCALAR"
    }
  ],
  "asset": {
    "extras": {
      "author": "S8ten21 (https://sketchfab.com/S8ten21)",
      "license": "CC-BY-4.0 (http://creativecommons.org/licenses/by/4.0/)",
      "source": "https://sketchfab.com/models/ca972bf129344a73a3fe59a0eef78164",
      "title": "Desk Asset"
    },
    "generator": "Sketchfab-4.24.0",
    "version": "2.0"
  },
  "bufferViews": [
    {
      "buffer": 0,
      "byteLength": 121848,
      "byteOffset": 0,
      "name": "floatBufferViews",
      "target": 34963
    },
    {
      "buffer": 0,
      "byteLength": 79848,
      "byteOffset": 121848,
      "byteStride": 8,
      "name": "floatBufferViews",
      "target": 34962
    },
    {
      "buffer": 0,
      "byteLength": 239544,
      "byteOffset": 201696,
      "byteStride": 12,
      "name": "floatBufferViews",
      "target": 34962
    },
    {
      "buffer": 0,
      "byteLength": 159696,
      "byteOffset": 441240,
      "byteStride": 16,
      "name": "floatBufferViews",
      "target": 34962
    }
  ],
  "buffers": [
    {
      "byteLength": 600936,
      "uri": "scene.bin"
    }
  ],
  "images": [
    {
      "uri": "textures/M_Monitor_Wide_baseColor.jpeg"
    },
    {
      "uri": "textures/M_Monitor_Wide_normal.png"
    },
    {
      "uri": "textures/M_Monitor_Wide_metallicRoughness.png"
    },
    {
      "uri": "textures/M_Monitor_Wide_Screen_emissive.png"
    },
    {
      "uri": "textures/M_Monitor_Wide_Screen_baseColor.png"
    },
    {
      "uri": "textures/M_Can_Momster_baseColor.jpeg"
    },
    {
      "uri": "textures/M_Can_Momster_normal.png"
    },
    {
      "uri": "textures/M_Can_Momster_metallicRoughness.png"
    },
    {
      "uri": "textures/M_Keyboard_emissive.png"
    },
    {
      "uri": "textures/M_Keyboard_metallicRoughness.png"
    },
    {
      "uri": "textures/M_Keyboard_normal.png"
    },
    {
      "uri": "textures/M_Keyboard_baseColor.png"
    },
    {
      "uri": "textures/M_Desk_Bottom_baseColor.jpeg"
    },
    {
      "uri": "textures/M_Desk_Bottom_normal.png"
    },
    {
      "uri": "textures/M_Desk_Bottom_metallicRoughness.png"
    },
    {
      "uri": "textures/M_Desk_Top_baseColor.jpeg"
    },
    {
      "uri": "textures/M_Desk_Top_normal.png"
    },
    {
      "uri": "textures/M_Desk_Top_metallicRoughness.png"
    },
    {
      "uri": "textures/M_HUION_KAMVAS_GT_221_PRO_baseColor.jpeg"
    },
    {
      "uri": "textures/M_HUION_KAMVAS_GT_221_PRO_normal.png"
    },
    {
      "uri": "textures/M_HUION_KAMVAS_GT_221_PRO_metallicRoughness.png"
    }
  ],
  "materials": [
    {
      "doubleSided": false,
      "name": "M_Can_Momster",
      "normalTexture": {
        "index": 6,
        "scale": 1,
        "texCoord": 0
      },
      "occlusionTexture": {
        "index": 7,
        "strength": 1,
        "texCoord": 0
      },
      "pbrMetallicRoughness": {
        "baseColorFactor": [
          1,
          1,
          1,
          1
        ],
        "baseColorTexture": {
          "index": 5,
          "texCoord": 0
        },
        "metallicFactor": 1,
        "metallicRoughnessTexture": {
          "index": 7,
          "texCoord": 0
        },
        "roughnessFactor": 1
      }
    },
    {
      "doubleSided": false,
      "name": "M_Monitor_Wide",
      "normalTexture": {
        "index": 1,
        "scale": 1,
        "texCoord": 0
      },
      "occlusionTexture": {
        "index": 2,
        "strength": 1,
        "texCoord": 0
      },
      "pbrMetallicRoughness": {
        "baseColorFactor": [
          1,
          1,
          1,
          1
        ],
        "baseColorTexture": {
          "index": 0,
          "texCoord": 0
        },
        "metallicFactor": 1,
        "metallicRoughnessTexture": {
          "index": 2,
          "texCoord": 0
        },
        "roughnessFactor": 1
      }
    },
    {
      "doubleSided": false,
      "emissiveFactor": [
        1,
        1,
        1
      ],
      "emissiveTexture": {
        "index": 3,
        "texCoord": 0
      },
      "name": "M_Monitor_Wide_Screen",
      "pbrMetallicRoughness": {
        "baseColorFactor": [
          1,
          1,
          1,
          1
        ],
        "baseColorTexture": {
          "index": 4,
          "texCoord": 0
        },
        "metallicFactor": 0,
        "roughnessFactor": 0.82394172570000002
      }
    },
    {
      "doubleSided": false,
      "emissiveFactor": [
        1,
        1,
        1
      ],
      "emissiveTexture": {
        "index": 8,
        "texCoord": 0
      },
      "name": "M_Keyboard",
      "normalTexture": {
        "index": 10,
        "scale": 1,
        "texCoord": 0
      },
      "occlusionTexture": {
        "index": 9,
        "strength": 1,
        "texCoord": 0
      },
      "pbrMetallicRoughness": {
        "baseColorFactor": [
          1,
          1,
          1,
          1
        ],
        "baseColorTexture": {
          "index": 11,
          "texCoord": 0
        },
        "metallicFactor": 1,
        "metallicRoughnessTexture": {
          "index": 9,
          "texCoord": 0
        },
        "roughnessFactor": 1
      }
    },
    {
      "doubleSided": false,
      "name": "M_Desk_Bottom",
      "normalTexture": {
        "index": 13,
        "scale": 1,
        "texCoord": 0
      },
      "occlusionTexture": {
        "index": 14,
        "strength": 1,
        "texCoord": 0
      },
      "pbrMetallicRoughness": {
        "baseColorFactor": [
          1,
          1,
          1,
          1
        ],
        "baseColorTexture": {
          "index": 12,
          "texCoord": 0
        },
        "metallicFactor": 1,
        "metallicRoughnessTexture": {
          "index": 14,
          "texCoord": 0
        },
        "roughnessFactor": 1
      }
    },
    {
      "doubleSided": false,
      "name": "M_Desk_Top",
      "normalTexture": {
        "index": 16,
        "scale": 1,
        "texCoord": 0
      },
      "occlusionTexture": {
        "index": 17,
        "strength": 1,
        "texCoord": 0
      },
      "pbrMetallicRoughness": {
        "baseColorFactor": [
          1,
          1,
          1,
          1
        ],
        "baseColorTexture": {
          "index": 15,
          "texCoord": 0
        },
        "metallicFactor": 1,
        "metallicRoughnessTexture": {
          "index": 17,
          "texCoord": 0
        },
        "roughnessFactor": 1
      }
    },
    {
      "doubleSided": false,
      "name": "M_HUION_KAMVAS_GT_221_PRO",
      "normalTexture": {
        "index": 19,
        "scale": 1,
        "texCoord": 0
      },
      "occlusionTexture": {
        "index": 20,
        "strength": 1,
        "texCoord": 0
      },
      "pbrMetallicRoughness": {
        "baseColorFactor": [
          1,
          1,
          1,
          1
        ],
        "baseColorTexture": {
          "index": 18,
          "texCoord": 0
        },
        "metallicFactor": 1,
        "metallicRoughnessTexture": {
          "index": 20,
          "texCoord": 0
        },
        "roughnessFactor": 1
      }
    }
  ],
  "meshes": [
    {
      "name": "Can_Momster_M_Can_Momster_0",
      "primitives": [
        {
          "attributes": {
            "NORMAL": 1,
            "POSITION": 0,
            "TANGENT": 2,
            "TEXCOORD_0": 3
          },
          "indices": 4,
          "material": 0,
          "mode": 4
        }
      ]
    },
    {
      "name": "Monitor_Wide_M_Monitor_Wide_0",
      "primitives": [
        {
          "attributes": {
            "NORMAL": 6,
            "POSITION": 5,
            "TANGENT": 7,
            "TEXCOORD_0": 8
          },
          "indices": 9,
          "material": 1,
          "mode": 4
        }
      ]
    },
    {
      "name": "Monitor_Wide_M_Monitor_Wide_Screen_0",
      "primitives": [
        {
          "attributes": {
            "NORMAL": 11,
            "POSITION": 10,
            "TANGENT": 12,
            "TEXCOORD_0": 13
          },
          "indices": 14,
          "material": 2,
          "mode": 4
        }
      ]
    },
    {
      "name": "Keyboard_M_Keyboard_0",
      "primitives": [
        {
          "attributes": {
            "NORMAL": 16,
            "POSITION": 15,
            "TANGENT": 17,
            "TEXCOORD_0": 18
          },
          "indices": 19,
          "material": 3,
          "mode": 4
        }
      ]
    },
    {
      "name": "Desk_M_Desk_Bottom_0",
      "primitives": [
        {
          "attributes": {
            "NORMAL": 21,
            "POSITION": 20,
            "TANGENT": 22,
            "TEXCOORD_0": 23
          },
          "indices": 24,
          "material": 4,
          "mode": 4
        }
      ]
    },
    {
      "name": "Desk_M_Desk_Top_0",
      "primitives": [
        {
          "attributes": {
            "NORMAL": 26,
            "POSITION": 25,
            "TANGENT": 27,
            "TEXCOORD_0": 28
          },
          "indices": 29,
          "material": 5,
          "mode": 4
        }
      ]
    },
    {
      "name": "1_M_HUION_KAMVAS_GT_221_PRO_0",
      "primitives": [
        {
          "attributes": {
            "NORMAL": 31,
            "POSITION": 30,
            "TANGENT": 32,
            "TEXCOORD_0": 33
          },
          "indices": 34,
          "material": 6,
          "mode": 4
        }
      ]
    }
  ],
  "nodes": [
    {
      "children": [
        1
      ],
      "name": "RootNode (gltf orientation matrix)",
      "rotation": [
        -0.70710678118654746,
        -0,
        -0,
        0.70710678118654757
      ]
    },
    {
      "children": [
        2
      ],
      "name": "RootNode (model correction matrix)"
    },
    {
      "children": [
        3
      ],
      "matrix": [
        1,
        0,
        0,
        0,
        0,
        0,
        1,
        0,
        0,
        -1,
        0,
        0,
        0,
        0,
        0,
        1
      ],
      "name": "ab954c24695c4955a215d05917bae432.fbx"
    },
    {
      "children": [
        4,
        6,
        9,
        11,
        14
      ],
      "name": "RootNode"
    },
    {
      "children": [
        5
      ],
      "matrix": [
        100,
        0,
        0,
        0,
        0,
        -1.6292067939183141e-05,
        -99.999999999998678,
        0,
        0,
        99.999999999998678,
        -1.6292067939183141e-05,
        0,
        78.612007141113281,
        42.851890563964844,
        -45.483505249023438,
        1
      ],
      "name": "Can_Momster"
    },
    {
      "mesh": 0,
      "name": "Can_Momster_M_Can_Momster_0"
    },
    {
      "children": [
        7,
        8
      ],
      "matrix": [
        74.064607412654979,
        -5.5511151231257827e-15,
        67.189537346295907,
        0,
        67.18953734629585,
        -4.3711389619005558e-06,
        -74.064607412654908,
        0,
        2.9369480569751971e-06,
        99.999999999999886,
        -3.2374669167722914e-06,
        0,
        75.127174377441406,
        55.105091094970703,
        -73.995857238769531,
        1
      ],
      "name": "Monitor_Wide"
    },
    {
      "mesh": 1,
      "name": "Monitor_Wide_M_Monitor_Wide_0"
    },
    {
      "mesh": 2,
      "name": "Monitor_Wide_M_Monitor_Wide_Screen_0"
    },
    {
      "children": [
        10
      ],
      "matrix": [
        42.52411309629025,
        -1.1102231093284513e-14,
        90.508018049523542,
        0,
        90.508018049523457,
        -4.3711393398009171e-06,
        -42.524113096290201,
        0,
        3.9562309706031584e-06,
        99.999999999999886,
        -1.8587879457854228e-06,
        0,
        56.279098510742188,
        37.560493469238281,
        -39.781665802001953,
        1
      ],
      "name": "Keyboard"
    },
    {
      "mesh": 3,
      "name": "Keyboard_M_Keyboard_0"
    },
    {
      "children": [
        12,
        13
      ],
      "matrix": [
        100,
        0,
        0,
        0,
        0,
        -1.6292067939183141e-05,
        -99.999999999998678,
        0,
        0,
        99.999999999998678,
        -1.6292067939183141e-05,
        0,
        10.18129825592041,
        6.9565920829772949,
        -6.350407600402832,
        1
      ],
      "name": "Desk"
    },
    {
      "mesh": 4,
      "name": "Desk_M_Desk_Bottom_0"
    },
    {
      "mesh": 5,
      "name": "Desk_M_Desk_Top_0"
    },
    {
      "children": [
        15
      ],
      "matrix": [
        97.65097459045063,
        0,
        21.547288359705924,
        0,
        21.547288359705902,
        -4.3711386728180365e-06,
        -97.650974590450545,
        0,
        9.4186199534052051e-07,
        99.999999999999915,
        -4.2684601631037822e-06,
        0,
        12.173459053039551,
        48.647861480712891,
        -73.080726623535156,
        1
      ],
      "name": "1"
    },
    {
      "mesh": 6,
      "name": "1_M_HUION_KAMVAS_GT_221_PRO_0"
    }
  ],
  "samplers": [
    {
      "magFilter": 9729,
      "minFilter": 9987,
      "wrapS": 10497,
      "wrapT": 10497
    }
  ],
  "scene": 0,
  "scenes": [
    {
      "name": "OSG_Scene",
      "nodes": [
        0
      ]
    }
  ],
  "textures": [
    {
      "sampler": 0,
      "source": 0
    },
    {
      "sampler": 0,
      "source": 1
    },
    {
      "sampler": 0,
      "source": 2
    },
    {
      "sampler": 0,
      "source": 3
    },
    {
      "sampler": 0,
      "source": 4
    },
    {
      "sampler": 0,
      "source": 5
    },
    {
      "sampler": 0,
      "source": 6
    },
    {
      "sampler": 0,
      "source": 7
    },
    {
      "sampler": 0,
      "source": 8
    },
    {
      "sampler": 0,
      "source": 9
    },
    {
      "sampler": 0,
      "source": 10
    },
    {
      "sampler": 0,
      "source": 11
    },
    {
      "sampler": 0,
      "source": 12
    },
    {
      "sampler": 0,
      "source": 13
    },
    {
      "sampler": 0,
      "source": 14
    },
    {
      "sampler": 0,
      "source": 15
    },
    {
      "sampler": 0,
      "source": 16
    },
    {
      "sampler": 0,
      "source": 17
    },
    {
      "sampler": 0,
      "source": 18
    },
    {
      "sampler": 0,
      "source": 19
    },
    {
      "sampler": 0,
      "source": 20
    }
  ]
}

