{
    "asset" : {
        "generator" : "Khronos glTF Blender I/O v1.6.16",
        "version" : "2.0"
    },
    "scene" : 0,
    "scenes" : [
        {
            "name" : "Scene",
            "nodes" : [
                10,
                11,
                12
            ]
        }
    ],
    "nodes" : [
        {
            "mesh" : 0,
            "name" : "cushions.001"
        },
        {
            "children" : [
                0
            ],
            "name" : "cushions",
            "scale" : [
                1.7358200550079346,
                0.742169976234436,
                0.7662699818611145
            ],
            "translation" : [
                -3.4687399864196777,
                0.2844800055027008,
                1.2108500003814697
            ]
        },
        {
            "name" : "floor",
            "scale" : [
                3.156589984893799,
                3.156589984893799,
                3.156589984893799
            ],
            "translation" : [
                -3.325200080871582,
                0,
                0.36737000942230225
            ]
        },
        {
            "mesh" : 1,
            "name" : "pillows.001"
        },
        {
            "mesh" : 2,
            "name" : "pillows.002"
        },
        {
            "children" : [
                3,
                4
            ],
            "name" : "pillows",
            "rotation" : [
                -0.17168474197387695,
                -0.03822910040616989,
                0.21396183967590332,
                0.9608763456344604
            ],
            "scale" : [
                1.3858046531677246,
                0.592507541179657,
                0.5925118923187256
            ],
            "translation" : [
                -4.624420166015625,
                0.3800300061702728,
                1.3058700561523438
            ]
        },
        {
            "mesh" : 3,
            "name" : "sofa.001"
        },
        {
            "children" : [
                6
            ],
            "name" : "sofa",
            "scale" : [
                1.7358200550079346,
                0.742169976234436,
                0.742169976234436
            ],
            "translation" : [
                -3.4687399864196777,
                0.17979000508785248,
                1.1364099979400635
            ]
        },
        {
            "children" : [
                1,
                2,
                5,
                7
            ],
            "name" : "Root"
        },
        {
            "children" : [
                8
            ],
            "name" : "RootNode (model correction matrix)"
        },
        {
            "children" : [
                9
            ],
            "name" : "RootNode (gltf orientation matrix)",
            "rotation" : [
                -0.7071068286895752,
                0,
                0,
                0.7071068286895752
            ]
        },
        {
            "name" : "Light",
            "rotation" : [
                0.16907575726509094,
                0.7558803558349609,
                -0.27217137813568115,
                0.570947527885437
            ],
            "translation" : [
                4.076245307922363,
                5.903861999511719,
                -1.0054539442062378
            ]
        },
        {
            "name" : "Camera",
            "rotation" : [
                0.483536034822464,
                0.33687159419059753,
                -0.20870360732078552,
                0.7804827094078064
            ],
            "translation" : [
                7.358891487121582,
                4.958309173583984,
                6.925790786743164
            ]
        }
    ],
    "materials" : [
        {
            "doubleSided" : true,
            "name" : "blackLeatherCushion",
            "pbrMetallicRoughness" : {
                "baseColorTexture" : {
                    "index" : 0
                },
                "metallicFactor" : 0,
                "roughnessFactor" : 0.6000000238418579
            }
        },
        {
            "doubleSided" : true,
            "name" : "pillowGreen",
            "pbrMetallicRoughness" : {
                "baseColorTexture" : {
                    "index" : 1
                },
                "metallicFactor" : 0,
                "roughnessFactor" : 0.6000000238418579
            }
        },
        {
            "doubleSided" : true,
            "name" : "pillowYellow",
            "pbrMetallicRoughness" : {
                "baseColorTexture" : {
                    "index" : 2
                },
                "metallicFactor" : 0,
                "roughnessFactor" : 0.6000000238418579
            }
        },
        {
            "doubleSided" : true,
            "name" : "blackSofa",
            "pbrMetallicRoughness" : {
                "baseColorTexture" : {
                    "index" : 3
                },
                "metallicFactor" : 0,
                "roughnessFactor" : 0.6000000238418579
            }
        }
    ],
    "meshes" : [
        {
            "name" : "cushions",
            "primitives" : [
                {
                    "attributes" : {
                        "POSITION" : 0,
                        "NORMAL" : 1,
                        "TEXCOORD_0" : 2
                    },
                    "indices" : 3,
                    "material" : 0
                }
            ]
        },
        {
            "name" : "pillows",
            "primitives" : [
                {
                    "attributes" : {
                        "POSITION" : 4,
                        "NORMAL" : 5,
                        "TEXCOORD_0" : 6
                    },
                    "indices" : 7,
                    "material" : 1
                }
            ]
        },
        {
            "name" : "pillows.001",
            "primitives" : [
                {
                    "attributes" : {
                        "POSITION" : 8,
                        "NORMAL" : 9,
                        "TEXCOORD_0" : 10
                    },
                    "indices" : 11,
                    "material" : 2
                }
            ]
        },
        {
            "name" : "sofa",
            "primitives" : [
                {
                    "attributes" : {
                        "POSITION" : 12,
                        "NORMAL" : 13,
                        "TEXCOORD_0" : 14
                    },
                    "indices" : 15,
                    "material" : 3
                }
            ]
        }
    ],
    "textures" : [
        {
            "sampler" : 0,
            "source" : 0
        },
        {
            "sampler" : 0,
            "source" : 1
        },
        {
            "sampler" : 0,
            "source" : 2
        },
        {
            "sampler" : 0,
            "source" : 3
        }
    ],
    "images" : [
        {
            "mimeType" : "image/png",
            "name" : "blackLeatherCushion_baseColor",
            "uri" : "blackLeatherCushion_baseColor.png"
        },
        {
            "mimeType" : "image/png",
            "name" : "pillowGreen_baseColor",
            "uri" : "pillowGreen_baseColor.png"
        },
        {
            "mimeType" : "image/png",
            "name" : "pillowYellow_baseColor",
            "uri" : "pillowYellow_baseColor.png"
        },
        {
            "mimeType" : "image/png",
            "name" : "blackSofa_baseColor",
            "uri" : "blackSofa_baseColor.png"
        }
    ],
    "accessors" : [
        {
            "bufferView" : 0,
            "componentType" : 5126,
            "count" : 1971,
            "max" : [
                1.0357799530029297,
                0.8746200203895569,
                0.7678899765014648
            ],
            "min" : [
                -1.0466699600219727,
                -1.0609300136566162,
                -0.6073399782180786
            ],
            "type" : "VEC3"
        },
        {
            "bufferView" : 1,
            "componentType" : 5126,
            "count" : 1971,
            "type" : "VEC3"
        },
        {
            "bufferView" : 2,
            "componentType" : 5126,
            "count" : 1971,
            "type" : "VEC2"
        },
        {
            "bufferView" : 3,
            "componentType" : 5123,
            "count" : 8220,
            "type" : "SCALAR"
        },
        {
            "bufferView" : 4,
            "componentType" : 5126,
            "count" : 414,
            "max" : [
                1.7745100259780884,
                0.17715999484062195,
                0.6225500106811523
            ],
            "min" : [
                -0.25878000259399414,
                -2.0264101028442383,
                -1.220080018043518
            ],
            "type" : "VEC3"
        },
        {
            "bufferView" : 5,
            "componentType" : 5126,
            "count" : 414,
            "type" : "VEC3"
        },
        {
            "bufferView" : 6,
            "componentType" : 5126,
            "count" : 414,
            "type" : "VEC2"
        },
        {
            "bufferView" : 7,
            "componentType" : 5123,
            "count" : 1632,
            "type" : "SCALAR"
        },
        {
            "bufferView" : 8,
            "componentType" : 5126,
            "count" : 232,
            "max" : [
                0.657509982585907,
                -0.03058999963104725,
                0.5244600176811218
            ],
            "min" : [
                0.10995999723672867,
                -0.6522300243377686,
                -0.726859986782074
            ],
            "type" : "VEC3"
        },
        {
            "bufferView" : 9,
            "componentType" : 5126,
            "count" : 232,
            "type" : "VEC3"
        },
        {
            "bufferView" : 10,
            "componentType" : 5126,
            "count" : 232,
            "type" : "VEC2"
        },
        {
            "bufferView" : 11,
            "componentType" : 5123,
            "count" : 912,
            "type" : "SCALAR"
        },
        {
            "bufferView" : 12,
            "componentType" : 5126,
            "count" : 1251,
            "max" : [
                1,
                1.101639986038208,
                0.7283700108528137
            ],
            "min" : [
                -1.0176399946212769,
                -0.8589400053024292,
                -1
            ],
            "type" : "VEC3"
        },
        {
            "bufferView" : 13,
            "componentType" : 5126,
            "count" : 1251,
            "type" : "VEC3"
        },
        {
            "bufferView" : 14,
            "componentType" : 5126,
            "count" : 1251,
            "type" : "VEC2"
        },
        {
            "bufferView" : 15,
            "componentType" : 5123,
            "count" : 4320,
            "type" : "SCALAR"
        }
    ],
    "bufferViews" : [
        {
            "buffer" : 0,
            "byteLength" : 23652,
            "byteOffset" : 0
        },
        {
            "buffer" : 0,
            "byteLength" : 23652,
            "byteOffset" : 23652
        },
        {
            "buffer" : 0,
            "byteLength" : 15768,
            "byteOffset" : 47304
        },
        {
            "buffer" : 0,
            "byteLength" : 16440,
            "byteOffset" : 63072
        },
        {
            "buffer" : 0,
            "byteLength" : 4968,
            "byteOffset" : 79512
        },
        {
            "buffer" : 0,
            "byteLength" : 4968,
            "byteOffset" : 84480
        },
        {
            "buffer" : 0,
            "byteLength" : 3312,
            "byteOffset" : 89448
        },
        {
            "buffer" : 0,
            "byteLength" : 3264,
            "byteOffset" : 92760
        },
        {
            "buffer" : 0,
            "byteLength" : 2784,
            "byteOffset" : 96024
        },
        {
            "buffer" : 0,
            "byteLength" : 2784,
            "byteOffset" : 98808
        },
        {
            "buffer" : 0,
            "byteLength" : 1856,
            "byteOffset" : 101592
        },
        {
            "buffer" : 0,
            "byteLength" : 1824,
            "byteOffset" : 103448
        },
        {
            "buffer" : 0,
            "byteLength" : 15012,
            "byteOffset" : 105272
        },
        {
            "buffer" : 0,
            "byteLength" : 15012,
            "byteOffset" : 120284
        },
        {
            "buffer" : 0,
            "byteLength" : 10008,
            "byteOffset" : 135296
        },
        {
            "buffer" : 0,
            "byteLength" : 8640,
            "byteOffset" : 145304
        }
    ],
    "samplers" : [
        {
            "magFilter" : 9729,
            "minFilter" : 9987
        }
    ],
    "buffers" : [
        {
            "byteLength" : 153944,
            "uri" : "scene.bin"
        }
    ]
}
