{
  "accessors": [
    {
      "bufferView": 2,
      "componentType": 5126,
      "count": 9270,
      "max": [
        104.76219940185547,
        124.46980285644531,
        81.41780090332031
      ],
      "min": [
        -121.36229705810547,
        -100.46710205078125,
        38.018001556396484
      ],
      "type": "VEC3"
    },
    {
      "bufferView": 2,
      "byteOffset": 111240,
      "componentType": 5126,
      "count": 9270,
      "max": [
        1.0,
        1.0,
        1.0
      ],
      "min": [
        -1.0,
        -1.0,
        -1.0
      ],
      "type": "VEC3"
    },
    {
      "bufferView": 1,
      "componentType": 5126,
      "count": 9270,
      "max": [
        1.0061999559402466,
        1.0022000074386597
      ],
      "min": [
        -0.006200000178068876,
        -0.010499999858438969
      ],
      "type": "VEC2"
    },
    {
      "bufferView": 0,
      "componentType": 5125,
      "count": 49920,
      "type": "SCALAR"
    },
    {
      "bufferView": 2,
      "byteOffset": 222480,
      "componentType": 5126,
      "count": 1722,
      "max": [
        17.49250030517578,
        -53.370399475097656,
        81.41780090332031
      ],
      "min": [
        -37.27199935913086,
        -105.9896011352539,
        45.56420135498047
      ],
      "type": "VEC3"
    },
    {
      "bufferView": 2,
      "byteOffset": 243144,
      "componentType": 5126,
      "count": 1722,
      "max": [
        0.9997404217720032,
        0.9999655485153198,
        0.9994942545890808
      ],
      "min": [
        -0.9997404217720032,
        -0.9988328218460083,
        -1.0
      ],
      "type": "VEC3"
    },
    {
      "bufferView": 1,
      "byteOffset": 74160,
      "componentType": 5126,
      "count": 1722,
      "max": [
        1.0061999559402466,
        1.0022000074386597
      ],
      "min": [
        -0.006200000178068876,
        -0.010499999858438969
      ],
      "type": "VEC2"
    },
    {
      "bufferView": 0,
      "byteOffset": 199680,
      "componentType": 5125,
      "count": 8448,
      "type": "SCALAR"
    },
    {
      "bufferView": 2,
      "byteOffset": 263808,
      "componentType": 5126,
      "count": 4940,
      "max": [
        41.89580154418945,
        59.88909912109375,
        75.66410064697266
      ],
      "min": [
        -58.10419845581055,
        -40.11090087890625,
        0.878600001335144
      ],
      "type": "VEC3"
    },
    {
      "bufferView": 2,
      "byteOffset": 323088,
      "componentType": 5126,
      "count": 4940,
      "max": [
        0.998227596282959,
        0.998227596282959,
        0.9979997873306274
      ],
      "min": [
        -0.998227596282959,
        -0.998227596282959,
        -0.9980087280273438
      ],
      "type": "VEC3"
    },
    {
      "bufferView": 1,
      "byteOffset": 87936,
      "componentType": 5126,
      "count": 4940,
      "max": [
        1.0,
        1.0
      ],
      "min": [
        0.0,
        0.0
      ],
      "type": "VEC2"
    },
    {
      "bufferView": 0,
      "byteOffset": 233472,
      "componentType": 5125,
      "count": 22932,
      "type": "SCALAR"
    },
    {
      "bufferView": 2,
      "byteOffset": 382368,
      "componentType": 5126,
      "count": 5740,
      "max": [
        101.19499969482422,
        123.10199737548828,
        62.2224006652832
      ],
      "min": [
        -33.56230163574219,
        -18.63360023498535,
        -0.025499999523162842
      ],
      "type": "VEC3"
    },
    {
      "bufferView": 2,
      "byteOffset": 451248,
      "componentType": 5126,
      "count": 5740,
      "max": [
        0.9998766183853149,
        0.999300479888916,
        0.9994319677352905
      ],
      "min": [
        -0.9999979734420776,
        -0.999300479888916,
        -0.9994683861732483
      ],
      "type": "VEC3"
    },
    {
      "bufferView": 0,
      "byteOffset": 325200,
      "componentType": 5125,
      "count": 33864,
      "type": "SCALAR"
    },
    {
      "bufferView": 2,
      "byteOffset": 520128,
      "componentType": 5126,
      "count": 5740,
      "max": [
        103.39430236816406,
        37.59080123901367,
        62.2224006652832
      ],
      "min": [
        -117.79509735107422,
        -18.78700065612793,
        -0.025499999523162842
      ],
      "type": "VEC3"
    },
    {
      "bufferView": 2,
      "byteOffset": 589008,
      "componentType": 5126,
      "count": 5740,
      "max": [
        0.999300479888916,
        0.9999979734420776,
        0.9994319677352905
      ],
      "min": [
        -0.999300479888916,
        -0.9998766183853149,
        -0.9994683861732483
      ],
      "type": "VEC3"
    },
    {
      "bufferView": 0,
      "byteOffset": 460656,
      "componentType": 5125,
      "count": 33396,
      "type": "SCALAR"
    },
    {
      "bufferView": 2,
      "byteOffset": 657888,
      "componentType": 5126,
      "count": 5740,
      "max": [
        17.952299118041992,
        37.744300842285156,
        62.2224006652832
      ],
      "min": [
        -119.99440002441406,
        -102.42240142822266,
        -0.025499999523162842
      ],
      "type": "VEC3"
    },
    {
      "bufferView": 2,
      "byteOffset": 726768,
      "componentType": 5126,
      "count": 5740,
      "max": [
        0.999300479888916,
        0.9998766183853149,
        0.9994319677352905
      ],
      "min": [
        -0.999300479888916,
        -0.9999979734420776,
        -0.9994683861732483
      ],
      "type": "VEC3"
    },
    {
      "bufferView": 0,
      "byteOffset": 594240,
      "componentType": 5125,
      "count": 33396,
      "type": "SCALAR"
    },
    {
      "bufferView": 2,
      "byteOffset": 795648,
      "componentType": 5126,
      "count": 5572,
      "max": [
        18.10569953918457,
        -51.74319839477539,
        62.2224006652832
      ],
      "min": [
        -37.88520050048828,
        -104.62169647216797,
        -0.025499999523162842
      ],
      "type": "VEC3"
    },
    {
      "bufferView": 2,
      "byteOffset": 862512,
      "componentType": 5126,
      "count": 5572,
      "max": [
        0.9998766183853149,
        0.999300479888916,
        0.9994319677352905
      ],
      "min": [
        -0.9999979734420776,
        -0.999300479888916,
        -0.9994683861732483
      ],
      "type": "VEC3"
    },
    {
      "bufferView": 0,
      "byteOffset": 727824,
      "componentType": 5125,
      "count": 32928,
      "type": "SCALAR"
    }
  ],
  "asset": {
    "extras": {
      "author": "vip--designer (https://sketchfab.com/vip--designer)",
      "license": "CC-BY-4.0 (http://creativecommons.org/licenses/by/4.0/)",
      "source": "https://sketchfab.com/3d-models/golden-chair-with-table-f2b08d80d7b842fca677b51644cb776f",
      "title": "Golden Chair With Table"
    },
    "generator": "Sketchfab-11.77.0",
    "version": "2.0"
  },
  "bufferViews": [
    {
      "buffer": 0,
      "byteLength": 859536,
      "name": "floatBufferViews",
      "target": 34963
    },
    {
      "buffer": 0,
      "byteLength": 127456,
      "byteOffset": 859536,
      "byteStride": 8,
      "name": "floatBufferViews",
      "target": 34962
    },
    {
      "buffer": 0,
      "byteLength": 929376,
      "byteOffset": 986992,
      "byteStride": 12,
      "name": "floatBufferViews",
      "target": 34962
    }
  ],
  "buffers": [
    {
      "byteLength": 1916368,
      "uri": "scene.bin"
    }
  ],
  "extensionsUsed": [
    "KHR_materials_clearcoat"
  ],
  "images": [
    {
      "uri": "textures/wire_177088027_baseColor.jpeg"
    }
  ],
  "materials": [
    {
      "doubleSided": true,
      "name": "wire_057008136",
      "pbrMetallicRoughness": {
        "baseColorFactor": [
          0.0015738785823861824,
          0.011377722125766763,
          0.012749804735937495,
          1.0
        ],
        "metallicFactor": 0.06251178033550396,
        "roughnessFactor": 0.6
      }
    },
    {
      "doubleSided": true,
      "name": "wire_177088027",
      "pbrMetallicRoughness": {
        "baseColorTexture": {
          "index": 0
        },
        "metallicFactor": 0.0,
        "roughnessFactor": 0.6
      }
    },
    {
      "doubleSided": true,
      "extensions": {
        "KHR_materials_clearcoat": {
          "clearcoatFactor": 1.0,
          "clearcoatRoughnessFactor": 0.04
        }
      },
      "name": "wire_224086086",
      "pbrMetallicRoughness": {
        "baseColorFactor": [
          0.08278013630699911,
          0.038290566484916605,
          0.004398631773842732,
          1.0
        ],
        "metallicFactor": 0.6401282308520146,
        "roughnessFactor": 0.37868078482875195
      }
    }
  ],
  "meshes": [
    {
      "name": "Object_0",
      "primitives": [
        {
          "attributes": {
            "NORMAL": 1,
            "POSITION": 0,
            "TEXCOORD_0": 2
          },
          "indices": 3,
          "material": 0,
          "mode": 4
        }
      ]
    },
    {
      "name": "Object_1",
      "primitives": [
        {
          "attributes": {
            "NORMAL": 5,
            "POSITION": 4,
            "TEXCOORD_0": 6
          },
          "indices": 7,
          "material": 0,
          "mode": 4
        }
      ]
    },
    {
      "name": "Object_2",
      "primitives": [
        {
          "attributes": {
            "NORMAL": 9,
            "POSITION": 8,
            "TEXCOORD_0": 10
          },
          "indices": 11,
          "material": 1,
          "mode": 4
        }
      ]
    },
    {
      "name": "Object_3",
      "primitives": [
        {
          "attributes": {
            "NORMAL": 13,
            "POSITION": 12
          },
          "indices": 14,
          "material": 2,
          "mode": 4
        }
      ]
    },
    {
      "name": "Object_4",
      "primitives": [
        {
          "attributes": {
            "NORMAL": 16,
            "POSITION": 15
          },
          "indices": 17,
          "material": 2,
          "mode": 4
        }
      ]
    },
    {
      "name": "Object_5",
      "primitives": [
        {
          "attributes": {
            "NORMAL": 19,
            "POSITION": 18
          },
          "indices": 20,
          "material": 2,
          "mode": 4
        }
      ]
    },
    {
      "name": "Object_6",
      "primitives": [
        {
          "attributes": {
            "NORMAL": 22,
            "POSITION": 21
          },
          "indices": 23,
          "material": 2,
          "mode": 4
        }
      ]
    }
  ],
  "nodes": [
    {
      "children": [
        1
      ],
      "matrix": [
        1.0,
        0.0,
        0.0,
        0.0,
        0.0,
        2.220446049250313e-16,
        -1.0,
        0.0,
        0.0,
        1.0,
        2.220446049250313e-16,
        0.0,
        0.0,
        0.0,
        0.0,
        1.0
      ],
      "name": "Sketchfab_model"
    },
    {
      "children": [
        2,
        3,
        4,
        5,
        6,
        7,
        8
      ],
      "name": "Golden Chair with Table.obj.cleaner.materialmerger.gles"
    },
    {
      "mesh": 0,
      "name": "Object_2"
    },
    {
      "mesh": 1,
      "name": "Object_3"
    },
    {
      "mesh": 2,
      "name": "Object_4"
    },
    {
      "mesh": 3,
      "name": "Object_5"
    },
    {
      "mesh": 4,
      "name": "Object_6"
    },
    {
      "mesh": 5,
      "name": "Object_7"
    },
    {
      "mesh": 6,
      "name": "Object_8"
    }
  ],
  "samplers": [
    {
      "magFilter": 9729,
      "minFilter": 9987,
      "wrapS": 10497,
      "wrapT": 10497
    }
  ],
  "scene": 0,
  "scenes": [
    {
      "name": "Sketchfab_Scene",
      "nodes": [
        0
      ]
    }
  ],
  "textures": [
    {
      "sampler": 0,
      "source": 0
    }
  ]
}
